<svg xmlns="http://www.w3.org/2000/svg" width="256" height="256"><path fill-opacity=".016" d="M0 128.004v128.004l128.25-.254 128.25-.254.254-127.75L257.008 0H0v128.004m.485.496c0 70.4.119 99.053.265 63.672.146-35.38.146-92.98 0-128C.604 29.153.485 58.1.485 128.5" fill="#1976D2" fill-rule="evenodd"/><path fill-opacity=".382" d="m182.114 14.386-14.361 14.386-3.626-2.48c-14.609-9.989-38.151-15.605-56.022-13.364-21.217 2.66-36.923 9.975-51.467 23.969-12.269 11.807-20.4 25.53-24.828 41.905-2.982 11.026-2.948 31.477.07 42.698 8.429 31.338 32.282 55.191 63.62 63.62 6.324 1.701 10.828 2.152 21.5 2.152 16.461 0 24.826-1.96 39.5-9.257l10-4.972 14.013 13.979 14.013 13.979L208 187.5l13.474-13.501-14.511-14.75-14.511-14.749 3.744-7.5c10.322-20.677 10.956-48.122 1.627-70.391-1.638-3.91-3.056-7.656-3.151-8.324-.094-.669 6.431-8.135 14.501-16.591l14.672-15.376-13.186-13.159C203.407 5.922 197.248 0 196.974 0c-.275 0-6.962 6.474-14.86 14.386m-77.849 38.093C82.61 58.57 67.977 77.723 68.012 99.932c.031 19.613 10.631 36.248 28.51 44.739 6.586 3.128 8.866 3.68 16.92 4.102 5.732.299 11.373.002 14.683-.775 10.649-2.501 11.4-.954-11.653-24.026l-20.796-20.814 22.162-22.784C130.027 67.842 140 57.264 140 56.866c0-.397-2.588-1.711-5.75-2.919-7.465-2.851-22.457-3.585-29.985-1.468m52.261 43.194-6.973 7.424 6.973 6.334c6.525 5.925 7.027 6.196 7.803 4.201 2.067-5.315 1.954-25.885-.14-25.508-.379.068-3.827 3.465-7.663 7.549m66.704 123.564c.245 19.306.429 21.267 2.02 21.573 1.623.312 1.75-1.229 1.75-21.237 0-20.977-.056-21.573-2.02-21.573-1.971 0-2.013.508-1.75 21.237m-189.98-9.264c-4.232 1.921-4.25 1.951-4.211 7.228l.039 5.299 1.359-3.122c3.575-8.213 15.27-8.729 19.015-.838 2.197 4.63 1.928 9.599-.736 13.562-4.541 6.758-14.412 6.071-18.021-1.254l-1.649-3.348-.023 4.595c-.03 5.985 2.225 8.099 9.242 8.666 4.38.353 5.842.008 8.949-2.115l3.715-2.537.285 9.695c.264 8.934.443 9.696 2.286 9.696 1.935 0 2.009-.756 2.268-23.25l.269-23.25h-2.519c-2.067 0-2.518.482-2.518 2.691 0 2.371-.149 2.494-1.25 1.033-1.415-1.877-7.777-4.735-10.468-4.702-.98.012-3.695.89-6.032 1.951m37.174-.002c-10.617 5.381-11.442 22.096-1.424 28.848 4.578 3.086 12.74 2.714 16.425-.749l2.41-2.264.333 2.347c.218 1.542 1.104 2.457 2.582 2.667l2.25.319V209h-2.5c-1.861 0-2.5.529-2.5 2.068v2.068l-2.855-2.033c-4.427-3.152-9.904-3.573-14.721-1.132m39.287-.079c-2.931 1.495-3.711 1.6-3.711.5 0-.822-1.034-1.392-2.525-1.392h-2.526l.276 15.75c.27 15.477.314 15.756 2.525 16.07 2.214.314 2.25.144 2.265-10.5.017-12.85.983-15.434 6.26-16.746 2.965-.738 3.725-1.4 3.725-3.25 0-2.819-1.416-2.916-6.289-.432m19.908-.858c-12.105 3.625-14.004 22.799-2.978 30.068 5.212 3.436 15.556 1.822 18.279-2.852.844-1.45 1.024-1.192 1.05 1.5.024 2.573.446 3.25 2.03 3.25 1.917 0 2-.667 2-16s-.083-16-2-16c-1.501 0-2 .667-2 2.674v2.675l-2.25-2.108c-4.135-3.873-8.554-4.876-14.131-3.207m68.349-.093c-7.053 2.143-10.969 7.774-10.966 15.769.002 6.039 2.501 11.079 6.998 14.109 2.943 1.982 4.439 2.292 9.395 1.945 5.267-.369 6.252-.802 9.25-4.074 1.845-2.013 3.355-4.342 3.355-5.175 0-2.622-3.004-1.653-6.559 2.116-3.213 3.407-3.716 3.598-8.15 3.098-5.091-.573-9.291-4.079-9.291-7.754 0-1.765.949-1.935 12.25-2.194l12.25-.281.32-2.789c.549-4.784-3.373-11.316-8.196-13.651-4.477-2.167-6.504-2.38-10.656-1.119m-42.827.823 6.27 16.128c5.55 14.281 6.062 15.191 8.383 14.909 2.189-.267 3.142-2.004 8.339-15.199 3.227-8.194 5.867-15.282 5.867-15.75 0-.469-1.019-.852-2.265-.852-1.83 0-2.624 1.01-4.129 5.25-1.025 2.887-3.226 8.817-4.89 13.176l-3.026 7.927-4.71-12.927c-4.364-11.975-4.912-12.95-7.454-13.253-1.509-.18-2.582.086-2.385.591m-85.218 6.159c-2.544 2.544-2.923 3.659-2.923 8.6 0 5.163.319 5.996 3.528 9.205 3.212 3.212 3.905 3.477 7.75 2.962 8.315-1.115 12.445-10.525 8.212-18.71-1.927-3.725-4.32-4.98-9.501-4.98-3.246 0-4.776.633-7.066 2.923m58.204-.827c-8.935 8.325-1.94 24.333 9.391 21.489 8.623-2.164 11.022-15.869 3.775-21.569-3.505-2.757-10.164-2.717-13.166.08m66.796.827c-1.608 1.608-2.923 3.858-2.923 5 0 1.964.543 2.077 10 2.077s10-.113 10-2.077c0-1.142-1.315-3.392-2.923-5-2.293-2.292-3.819-2.923-7.077-2.923s-4.784.631-7.077 2.923m-80.122 31.174c-.547 1.642.263 6.903 1.062 6.903.826 0 .806-6.664-.022-7.492-.348-.348-.816-.083-1.04.589m3.393 2.364c-.072 1.903.305 3.73.838 4.059.532.329.968-.591.968-2.044 0-3.259 2.161-2.845 3.123.598l.678 2.426.099-2.628c.101-2.654-2.028-5.411-3.242-4.197-.362.362-.658.133-.658-.508 0-.642-.377-1.167-.838-1.167-.461 0-.896 1.557-.968 3.461M128 250c0 2.2.45 4 1 4s1-.54 1-1.2c0-.933.267-.933 1.2 0 .66.66 2.235 1.2 3.5 1.2 1.868 0 2.3-.541 2.3-2.883 0-3.397-3.167-4.807-5.518-2.457-1.309 1.31-1.482 1.242-1.482-.589 0-1.139-.45-2.071-1-2.071s-1 1.8-1 4m27.272 0c0 2.475.195 3.488.434 2.25.238-1.238.238-3.262 0-4.5-.239-1.238-.434-.225-.434 2.25M185 247.059c0 .582-.414.803-.919.491-.506-.313-1.707.219-2.67 1.182-1.257 1.257-1.867 1.4-2.164.509-.228-.683-1.501-1.241-2.83-1.241-2.081 0-2.403.452-2.317 3.25.089 2.914.169 2.999.777.824.953-3.408 3.123-3.865 3.123-.657 0 1.421.45 2.583 1 2.583s1.007-.562 1.015-1.25c.012-.933.23-.911.863.087.467.736 1.922 1.186 3.235 1 1.985-.28 2.422-.968 2.595-4.087.114-2.062-.223-3.75-.75-3.75s-.958.477-.958 1.059m-105.046 1.496c-1.864 2.246-.695 4.915 2.305 5.261 2.44.282 2.741-.007 2.741-2.633 0-3.323-3.12-4.948-5.046-2.628m7.796-.797c-1.304.289-1.75 1.39-1.75 4.315 0 2.16.45 3.927 1 3.927s1-.398 1-.883c0-.486.9-1.119 2-1.407 1.324-.346 2-1.364 2-3.009 0-2.633-1.372-3.583-4.25-2.943m7 0c-1.304.289-1.75 1.39-1.75 4.315 0 2.16.45 3.927 1 3.927s1-.398 1-.883c0-.486.9-1.119 2-1.407 1.324-.346 2-1.364 2-3.009 0-2.633-1.372-3.583-4.25-2.943m47.661.974c-.776.776-1.411 1.739-1.411 2.139 0 1.485 2.47 3.129 4.7 3.129 1.823 0 2.316-.57 2.379-2.75l.079-2.75 1.004 2.75c1.298 3.554 2.388 3.48 3.688-.25.635-1.821.674-3 .098-3-.521 0-.948.675-.948 1.5s-.45 1.5-1 1.5-1-.624-1-1.387c0-1.96-5.833-2.637-7.589-.881m25.014-.014c-.847.847-1.289 2.194-.983 2.993.307.799.558 1.641.558 1.871 0 .23 1.35.418 3 .418 2.64 0 3-.346 3-2.883 0-3.436-3.173-4.801-5.575-2.399m24 0c-.847.847-1.289 2.194-.983 2.993.307.799.558 1.641.558 1.871 0 .23.9.418 2 .418s2 .45 2 1 .45 1 1 1 1-1.748 1-3.883c0-3.054-.431-3.996-2.018-4.411-1.121-.294-2.701.156-3.557 1.012m14.046-.047c-.872.873-1.335 2.241-1.029 3.04.307.799.558 1.641.558 1.871 0 1.184 4.869.202 5.362-1.082 1.392-3.629-2.244-6.475-4.891-3.829m6.554-.202c-.863 1.041-.594 1.737 1.177 3.033l2.298 1.683-2.375-.7c-1.622-.477-2.159-.348-1.691.408.9 1.457 4.566 1.431 4.566-.033 0-.627-.787-1.788-1.75-2.581-1.667-1.374-1.667-1.416 0-.892 2.084.655 2.382-.93.323-1.721-.785-.301-1.931.061-2.548.803m5.929.086c-1.864 2.246-.695 4.915 2.305 5.261 2.44.282 2.741-.007 2.741-2.633 0-3.323-3.12-4.948-5.046-2.628m-155.592.945c-.958 2.495.427 4.5 3.107 4.5 2.146 0 2.531-.457 2.531-3s-.385-3-2.531-3c-1.393 0-2.791.675-3.107 1.5M69 250.934c0 1.686.45 3.066 1 3.066s1-1.125 1-2.5.45-2.5 1-2.5 1 1.125 1 2.5.48 2.5 1.066 2.5c.587 0 .924-1.238.75-2.75-.248-2.16-.906-2.818-3.066-3.066-2.471-.285-2.75-.006-2.75 2.75m34.513-.436c.822 3.793 1.358 4.315 2.541 2.473.833-1.295 1.059-1.295 1.892 0 1.183 1.842 1.719 1.32 2.541-2.473.617-2.85.572-2.902-.919-1.057-1.374 1.701-1.568 1.732-1.568.25 0-.93-.45-1.691-1-1.691s-1 .761-1 1.691c0 1.482-.194 1.451-1.568-.25-1.491-1.845-1.536-1.793-.919 1.057m8.719.502c0 1.925.206 2.713.457 1.75.252-.963.252-2.537 0-3.5-.251-.963-.457-.175-.457 1.75m25.904.25c.115 2.752.208 2.867.601.75.256-1.375.982-2.831 1.614-3.235.738-.472.523-.74-.601-.75-1.338-.011-1.718.749-1.614 3.235m19.253-1.82c-.995 2.591.399 4.739 2.848 4.39 3.198-.456 3.205-5.186.009-5.64-1.353-.192-2.496.308-2.857 1.25m40.761 1.32c-.131 2.84.165 3.25 2.35 3.25 2.174 0 2.487-.423 2.4-3.25-.089-2.914-.169-2.999-.777-.824-.969 3.466-2.905 3.684-3.401.383-.404-2.688-.429-2.669-.572.441M224 251c0 1.65.399 3 .887 3 .487 0 1.084-1.35 1.326-3 .301-2.047.019-3-.886-3-.808 0-1.327 1.174-1.327 3m-160.554-.913c-1.03 1.668 1.287 3.58 2.667 2.2C67.267 251.133 66.545 249 65 249c-.485 0-1.184.489-1.554 1.087M80.5 250c-.729 1.18.217 3 1.559 3 .518 0 .941-.9.941-2 0-2.109-1.455-2.691-2.5-1m7.5 1.083c0 2.437 2.337 2.093 2.823-.416.192-.987-.318-1.667-1.25-1.667-.927 0-1.573.855-1.573 2.083m7-.083c0 1.289.506 1.998 1.25 1.75.688-.229 1.25-1.017 1.25-1.75 0-.733-.562-1.521-1.25-1.75-.744-.248-1.25.461-1.25 1.75m37.177-.333c.486 2.509 2.823 2.853 2.823.416 0-1.228-.646-2.083-1.573-2.083-.932 0-1.442.68-1.25 1.667m11 0c.486 2.509 2.823 2.853 2.823.416 0-1.228-.646-2.083-1.573-2.083-.932 0-1.442.68-1.25 1.667M168 251c0 1.111.667 2 1.5 2s1.5-.889 1.5-2-.667-2-1.5-2-1.5.889-1.5 2m14 0c0 1.111.667 2 1.5 2s1.5-.889 1.5-2-.667-2-1.5-2-1.5.889-1.5 2m10 0c0 1.111.667 2 1.5 2s1.5-.889 1.5-2-.667-2-1.5-2-1.5.889-1.5 2m14 0c0 1.111.667 2 1.5 2s1.5-.889 1.5-2-.667-2-1.5-2-1.5.889-1.5 2m12.5-1c-.729 1.18.217 3 1.559 3 .518 0 .941-.9.941-2 0-2.109-1.455-2.691-2.5-1" fill="#1976D2" fill-rule="evenodd"/><path fill-opacity=".394" d="m182.373 14.897-14.127 14.397-5.919-3.596C128.483 5.139 84.624 10.143 56.142 37.813 14.415 78.351 23.984 148.311 75.096 176.391c26.08 14.327 60.545 14.036 85.047-.718l5.523-3.326 14.818 14.075 14.818 14.075 12.721-13.366 12.72-13.365-14.439-14.133-14.439-14.133 3.531-7.605c6.455-13.905 8.065-21.523 8.006-37.895-.057-16.103-1.817-24.85-7.296-36.266l-2.94-6.126 14.958-15.432c8.226-8.488 14.827-15.744 14.667-16.125-.16-.381-6.141-6.286-13.291-13.122L196.5.5l-14.127 14.397m-76.11 36.617c-23.754 5.161-41.069 28.562-38.882 52.549 1.81 19.859 14.604 36.338 33.513 43.169 7.759 2.803 22.299 2.972 30.856.36 3.438-1.05 6.25-2.238 6.25-2.64 0-.403-9.408-9.93-20.906-21.172l-20.906-20.439 22.53-23.213c12.392-12.767 22.362-23.361 22.156-23.543-1.759-1.553-8.219-3.974-13.71-5.138-8.11-1.719-12.749-1.704-20.901.067m50.452 43.27-7.718 7.763 7.423 7.374 7.424 7.374 1.305-4.398c1.519-5.117 1.7-21.594.265-24.137-.851-1.508-2.009-.706-8.699 6.024M224 219c0 18 .214 21 1.5 21s1.5-3 1.5-21-.214-21-1.5-21-1.5 3-1.5 21m-190-9.344c-3.534 1.426-4.999 3.715-4.961 7.749l.039 4.095 1.429-3.287c3.142-7.233 14.346-7.782 18.537-.909 1.222 2.004 1.95 5.004 1.952 8.046.003 4.185-.462 5.316-3.396 8.25-5.434 5.434-12.677 4.602-16.65-1.914l-1.943-3.186-.003 4.227c-.003 3.288.496 4.55 2.246 5.682 5.487 3.55 12.749 3.175 17.128-.884l2.622-2.43v9.953c0 9.285.134 9.952 2 9.952 1.942 0 2-.667 2-23.073 0-21.435-.124-23.05-1.75-22.74-.962.183-1.9 1.385-2.082 2.67l-.333 2.337-2.41-2.264c-1.739-1.634-3.872-2.35-7.667-2.572-2.892-.169-5.933-.035-6.758.298m35.182 1.374c-4.594 2.801-7.614 9.8-6.798 15.754 1.815 13.242 15.081 18.673 24.366 9.975l2.25-2.108v2.675c0 2.019.496 2.674 2.026 2.674 1.958 0 2.017-.511 1.75-15.237-.246-13.589-.465-15.274-2.026-15.574-1.37-.263-1.75.354-1.75 2.841v3.177l-3.535-3.103c-2.887-2.535-4.399-3.103-8.25-3.1-2.967.002-5.945.753-8.033 2.026M102 224.427c0 14.906.086 15.573 2 15.573 1.879 0 2-.667 2-11.045 0-10.394.145-11.191 2.455-13.5 1.35-1.35 3.6-2.455 5-2.455 1.878 0 2.545-.524 2.545-2 0-1.436-.667-2-2.365-2-1.301 0-3.509.9-4.908 2-3.103 2.441-3.544 2.479-3.366.288.077-.941-.648-1.874-1.611-2.073-1.607-.332-1.75.909-1.75 15.212m24.42-13.541c-1.694 1.033-3.832 3.462-4.75 5.397-1.91 4.026-2.209 12.803-.545 16.033 4.527 8.79 14.629 11.128 21.846 5.055l3.029-2.549v2.589c0 1.922.515 2.589 2 2.589 1.914 0 2-.667 2-15.5s-.086-15.5-2-15.5c-1.584 0-2.006.677-2.03 3.25-.026 2.692-.206 2.95-1.05 1.5-2.725-4.678-12.934-6.259-18.5-2.864m29.559-1.136c-.012.412 2.536 7.41 5.661 15.551 5.335 13.897 5.833 14.782 8.154 14.5 2.189-.267 3.142-2.004 8.339-15.199 3.227-8.194 5.867-15.088 5.867-15.32 0-.232-.953-.277-2.119-.102-1.714.259-2.969 2.614-6.565 12.32-2.446 6.6-4.8 12.36-5.23 12.799-.431.439-2.954-5.073-5.606-12.25-3.776-10.218-5.219-13.049-6.651-13.049-1.006 0-1.838.338-1.85.75m38.325 1.206c-4.368 2.664-6.26 5.878-6.966 11.834-1.496 12.636 9.749 21.543 21.172 16.77 2.977-1.244 7.475-6.537 7.486-8.81.009-1.744-4.025-.563-5.124 1.5-1.867 3.504-4.019 4.684-8.606 4.718-4.964.037-10.097-3.853-10.513-7.968l-.253-2.5 12.25-.281 12.25-.281v-3.518c0-10.648-12.34-17.168-21.696-11.464m-120.916 1.978c-5.392 2.297-8.479 10.23-6.415 16.485 2.23 6.755 9.362 9.528 15.862 6.166 6.698-3.463 7.716-14.901 1.82-20.44-2.664-2.502-8.087-3.566-11.267-2.211m56.626.818c-4.336 2.174-5.98 5.353-5.999 11.598-.013 4.192.446 5.311 3.385 8.25 9.666 9.666 23.116-2.281 17.023-15.122-1.481-3.12-6.448-6.48-9.574-6.476-.742 0-2.918.788-4.835 1.75m66.367.158c-2.45 1.493-5.381 6.254-5.381 8.739 0 .193 4.725.351 10.5.351 9.945 0 10.5-.109 10.5-2.066 0-3.376-1.946-6.014-5.548-7.519-4.484-1.873-6.338-1.782-10.071.495" fill="#1976D2" fill-rule="evenodd"/><path fill-opacity=".979" d="M224 219c0 18 .214 21 1.5 21s1.5-3 1.5-21-.214-21-1.5-21-1.5 3-1.5 21m-191-8.248c-3.042 1.519-3.53 2.272-3.726 5.748-.169 2.979-.008 3.489.631 2 1.506-3.508 4.884-5.722 9.527-6.245 4.124-.465 4.812-.211 7.962 2.939 4.193 4.193 5.43 9.353 3.475 14.492-3.45 9.064-15.176 10.518-20.151 2.497l-1.665-2.683-.026 3.534c-.035 4.587 3.668 6.966 10.842 6.966 4.235 0 5.638-.507 8.596-3.104L52 233.793v10.603c0 8.759.261 10.604 1.5 10.604 1.29 0 1.5-3.204 1.5-22.833 0-19.63-.21-22.834-1.5-22.834-.98 0-1.5.982-1.5 2.834 0 3.048-1.411 3.811-2.379 1.288-.737-1.921-6.621-4.456-10.339-4.453-1.53 0-4.357.788-6.282 1.75m37.062.075C65.483 213.283 63 218.19 63 224.784 63 234.622 67.807 240 76.6 240c4.536 0 5.857-.462 8.865-3.104L89 233.793v3.103c0 2.092.489 3.104 1.5 3.104 1.268 0 1.5-2.37 1.5-15.333 0-12.963-.232-15.334-1.5-15.334-.98 0-1.5.982-1.5 2.834 0 3.048-1.411 3.811-2.379 1.288-.738-1.923-6.622-4.455-10.354-4.455-1.539 0-4.331.822-6.205 1.827M102 224.667c0 12.963.232 15.333 1.5 15.333 1.228 0 1.5-1.726 1.5-9.532 0-11.491 1.54-16.103 5.684-17.02 1.549-.343 3.227-.72 3.729-.84.502-.119 1.032-1.029 1.177-2.023.224-1.521-.229-1.707-2.864-1.18-1.722.344-4.164 1.597-5.428 2.785L105 214.349v-2.508c0-1.562-.565-2.508-1.5-2.508-1.268 0-1.5 2.371-1.5 15.334m25-13.486c-6.747 4.547-8.797 13.265-5.057 21.503 2.254 4.963 6.2 7.318 12.257 7.312 4.369-.004 10.8-3.005 10.8-5.04 0-.591.39-.833.866-.539.476.294.649 1.671.383 3.059-.393 2.056-.089 2.524 1.634 2.524 2.062 0 2.117-.391 2.117-15s-.055-15-2.117-15c-1.718 0-2.026.47-1.638 2.5.605 3.164.032 3.14-3.394-.142-4.005-3.838-11.12-4.366-15.851-1.177m29.457-.354c8.632 23.604 11.134 29.141 13.176 29.157 1.809.014 2.888-1.918 7.111-12.734 6.826-17.483 6.833-17.508 4.662-17.09-1.29.249-3.054 3.884-6.346 13.082-2.508 7.006-4.845 12.743-5.193 12.748-.349.006-2.824-5.912-5.5-13.151-3.623-9.797-5.334-13.227-6.694-13.422-1.332-.192-1.662.191-1.216 1.41m38.664-.117c-4.894 2.411-7.113 6.648-7.117 13.59-.007 10.559 4.609 15.7 14.096 15.7 5.096 0 6.276-.391 9.365-3.104 3.623-3.181 4.613-5.896 2.15-5.896-.762 0-2.096 1.085-2.965 2.411-3.807 5.811-13.982 5.373-17.724-.764-3.867-6.342-3.381-6.647 10.574-6.647H216v-3.266c0-10.299-11.24-16.772-20.879-12.024M71.42 213.885c-8.737 5.328-6.17 21.515 3.725 23.494 6.672 1.334 13.843-4.997 13.851-12.228.012-10.241-9.382-16.262-17.576-11.266m56.802.582c-11.077 9.321-1.48 28.02 11.275 21.967 4.901-2.325 6.837-6.388 6.276-13.163-.575-6.926-3.605-10.272-9.951-10.988-3.74-.421-4.901-.088-7.6 2.184m66.829.283c-1.639 1.512-3.269 3.988-3.624 5.5l-.644 2.75h22.434l-.644-2.75c-1.039-4.436-5.927-8.25-10.573-8.25-2.94 0-4.741.713-6.949 2.75" fill="#1976D2" fill-rule="evenodd"/></svg>