<svg xmlns="http://www.w3.org/2000/svg" width="256" height="256"><path fill-opacity=".016" d="M0 128.004v128.004l128.25-.254 128.25-.254.254-127.75L257.008 0H0v128.004m.485.496c0 70.4.119 99.053.265 63.672.146-35.38.146-92.98 0-128C.604 29.153.485 58.1.485 128.5" fill="#3a80c3" fill-rule="evenodd"/><path fill-opacity=".334" d="m166.697 40.98-10.521 10.98-5.713-3.44c-11.74-7.069-27.803-10.406-41.213-8.56-24.324 3.349-42.847 16.995-53.254 39.234-15.007 32.069-.151 72.221 32.484 87.796 8.618 4.113 17.427 5.978 28.323 5.995 11.79.019 20.952-2.065 30.459-6.926l7.497-3.835 10.353 10.388c5.694 5.714 10.882 10.388 11.529 10.388.647 0 5.475-4.612 10.728-10.25l9.551-10.25-10.999-11.055-10.999-11.054 3.057-6.533c7.697-16.447 7.914-35.857.602-53.851l-2.617-6.441 11.519-11.549 11.52-11.55-10.269-10.233C183.087 34.605 178.185 30 177.842 30c-.343 0-5.358 4.941-11.145 10.98m-60.411 29.412c-10.024 3.272-18.68 10.803-23.437 20.392-2.024 4.08-2.341 6.199-2.345 15.716-.004 10.632.111 11.211 3.419 17.313 4.233 7.807 11.378 14.369 18.875 17.335 6.793 2.688 20.32 3.162 26.683.937l3.982-1.393-16.44-15.731-16.441-15.73 17.17-17.866 17.17-17.865-4.211-1.922c-5.403-2.465-18.549-3.103-24.425-1.186m41.461 32.353-5.752 5.818 5.398 5.331 5.399 5.332.536-2.863c1.402-7.473 1.57-10.215.897-14.65l-.725-4.787-5.753 5.819M198 197.5c0 15.833.081 16.5 2 16.5s2-.667 2-16.5-.081-16.5-2-16.5-2 .667-2 16.5m-147.473-5.227c-3.131 3.131-3.527 4.111-3.527 8.723 0 5.877 2.109 10.277 5.712 11.919 3.745 1.706 8.77 1.28 11.653-.988L67 209.855v7.572c0 6.065.299 7.573 1.5 7.573 1.278 0 1.5-2.667 1.5-18s-.222-18-1.5-18c-.869 0-1.5.906-1.5 2.155 0 2.077-.071 2.091-1.959.382-1.078-.976-3.991-2.002-6.473-2.282-4.14-.467-4.806-.217-8.041 3.018m30.236-1.708c-7.333 3.979-7.655 16.895-.546 21.874 3.236 2.267 9.92 2.013 12.594-.478L95 209.922v2.039c0 1.383.654 2.039 2.031 2.039 1.945 0 2.019-.513 1.75-12.168-.207-8.975-.626-12.283-1.597-12.606-.724-.24-1.562.504-1.863 1.653l-.546 2.089-2.522-1.984c-2.965-2.332-7.65-2.503-11.49-.419M105 201.5c0 11.833.107 12.5 2 12.5 1.849 0 2-.667 2-8.845 0-9.365.942-11.479 5.489-12.313 2.62-.481 3.326-3.842.807-3.842-1.018 0-2.805.669-3.972 1.486-1.876 1.314-2.187 1.314-2.691 0-.314-.817-1.259-1.486-2.102-1.486-1.293 0-1.531 1.942-1.531 12.5m20.256-11.471c-4.023 1.617-6.418 6.791-5.965 12.889.338 4.561.903 5.866 3.571 8.25 3.945 3.525 9.584 3.842 13.503.759l2.635-2.072v2.072c0 1.417.643 2.073 2.031 2.073 1.945 0 2.019-.513 1.75-12.238-.246-10.729-.497-12.279-2.031-12.573-1.227-.235-1.75.305-1.75 1.81v2.146l-2.635-2.072c-2.749-2.163-7.27-2.588-11.109-1.044m21.187.721c7.715 20.562 9.03 23.326 10.969 23.042 1.498-.22 3.03-2.87 6.24-10.792 2.34-5.775 4.276-11.287 4.301-12.25.053-1.992-2.784-2.402-3.46-.5-.244.688-1.951 5.249-3.792 10.136l-3.348 8.887-3.802-10.137c-3.06-8.159-4.189-10.136-5.783-10.136-1.471 0-1.813.451-1.325 1.75m28.7.783c-6.933 5.834-6.132 17.873 1.418 21.313 4.772 2.174 10.296 1.451 13.516-1.769 1.608-1.608 2.923-3.408 2.923-4 0-1.899-2.832-1.154-5.409 1.423-4.322 4.322-11.38 2.568-13.071-3.25-.647-2.222-.536-2.25 8.913-2.25H193v-3.6c0-2.761-.793-4.393-3.4-7-4.382-4.382-9.887-4.712-14.457-.867m-118.789 1.233c-3.62.583-5.854 3.989-5.854 8.926 0 3.67.508 4.918 2.806 6.895 3.403 2.927 6.59 3.07 9.928.444 3.187-2.507 4.149-7.178 2.361-11.458-1.448-3.466-5.258-5.448-9.241-4.807m26.88.778c-3.366 1.415-4.234 3.119-4.234 8.315 0 6.744 5.169 10.556 11.024 8.131 4.973-2.06 6.579-9.682 2.999-14.234-2.415-3.069-5.885-3.854-9.789-2.212m44 0c-3.405 1.432-4.234 3.111-4.234 8.583 0 2.875.674 4.638 2.455 6.418 3.302 3.303 7.015 3.139 10.622-.468 7.125-7.126.283-18.371-8.843-14.533m52.123-.543c-2.076.829-5.357 4.639-5.357 6.222 0 .427 3.558.777 7.906.777 7.326 0 7.87-.142 7.401-1.935-1.045-3.993-6.138-6.586-9.95-5.064m-67.217 26.146c-1.082 1.733-1.511 1.878-2.225.75-.738-1.166-.887-1.17-.9-.025-.013 1.161-.269 1.162-1.659.008-1.472-1.221-1.564-1.103-.876 1.128 1.037 3.363 1.466 3.692 2.559 1.963.63-.996.935-1.068.946-.221.024 1.945 2.006 1.47 2.085-.5.06-1.494.194-1.458.919.25.659 1.555.83 1.166.768-1.75-.045-2.062-.125-3.75-.178-3.75-.054 0-.701.966-1.439 2.147m3.408.103c-.419.963-.419 2.537 0 3.5.725 1.667.781 1.667 1.18 0 .23-.963.23-2.537 0-3.5-.399-1.667-.455-1.667-1.18 0m2.515 2.031c.063 3.204.069 3.207 1.174.719 1.107-2.494 1.111-2.495 1.506-.25.414 2.349 2.268 3.176 2.242 1-.022-1.799-1.223-3.299-3.235-4.042-1.445-.533-1.739-.084-1.687 2.573m8.007-.744c-.062 2.676.288 3.065 2.93 3.266 2.599.198 3-.108 3-2.287 0-1.849-.53-2.516-2-2.516-1.1 0-2.032.563-2.07 1.25-.039.688-.457.35-.93-.75-.736-1.713-.87-1.565-.93 1.037m20.061.463c-.075 2.602.148 3.115.869 2 .646-1 .974-1.083.985-.25.008.688.915 1.25 2.015 1.25 1.313 0 2-.667 2-1.941 0-2.508-1.712-3.543-3.46-2.092-1.069.887-1.477.739-1.84-.664-.258-.992-.513-.228-.569 1.697m21.619-2.311c-.963.252-1.75.965-1.75 1.584 0 .795-.353.774-1.2-.073-2.085-2.085-3.806-1.365-3.7 1.55l.099 2.75.812-2.5c.765-2.359.848-2.385 1.462-.458.434 1.361 1.631 2.117 3.589 2.266 2.651.202 2.938-.071 2.938-2.792 0-1.659-.113-2.964-.25-2.9-.137.064-1.037.322-2 .573m-92.37 1.763c-.775 2.021.378 3.548 2.679 3.548 1.404 0 1.941-.692 1.941-2.5 0-1.846-.531-2.5-2.031-2.5-1.118 0-2.283.653-2.589 1.452m5.72 1.225.099 2.823.765-2.5.765-2.5 1.126 2.5 1.125 2.5-.24-2.49c-.14-1.452-.97-2.629-1.99-2.823-1.349-.257-1.727.313-1.65 2.49m7.601-2.045c-.385.386-.701 1.526-.701 2.535 0 1.302.745 1.833 2.57 1.833 2.089 0 2.509-.418 2.25-2.24-.317-2.217-2.765-3.482-4.119-2.128m5.079 2.412c-.245 1.674-.072 3.276.387 3.559.458.283.833.038.833-.544 0-.582.638-1.059 1.417-1.059s1.643-.562 1.921-1.25c.277-.687.547-.125.598 1.25.053 1.393.42 2.025.829 1.427.404-.59 1.556-1.376 2.559-1.747 1.04-.384 1.68-1.427 1.49-2.427-.387-2.028-4.814-3.06-4.814-1.123 0 .988-.267 1.003-1.2.07-2.035-2.035-3.553-1.339-4.02 1.844m39.29-.294c.063 2.437.168 2.522.93.75 1.174-2.731 1.174-3.5 0-3.5-.55 0-.968 1.238-.93 2.75m3.574-2.06c-.354.354-.644 1.468-.644 2.477 0 1.289.742 1.833 2.5 1.833 1.375 0 2.5-.413 2.5-.918 0-.505.235-1.531.523-2.28.542-1.414-3.627-2.364-4.879-1.112m6.606.869c-1.472 1.598-1.642 3.441-.317 3.441.923 0 2.566-3.851 1.908-4.475-.187-.178-.903.287-1.591 1.034m12.451-.927c-.385.386-.701 1.526-.701 2.535 0 1.302.745 1.833 2.57 1.833 2.089 0 2.509-.418 2.25-2.24-.317-2.217-2.765-3.482-4.119-2.128m17.679.82c-.7 1.825.318 3.548 2.096 3.548.746 0 1.584.563 1.862 1.25.277.688.54-.437.583-2.5.066-3.129-.258-3.75-1.952-3.75-1.118 0-2.283.653-2.589 1.452m5.756.798c-.105 2.129.316 2.75 1.864 2.75s1.969-.621 1.864-2.75c-.117-2.358-.198-2.429-.57-.5-.238 1.238-.821 2.25-1.294 2.25-.473 0-1.056-1.012-1.294-2.25-.372-1.929-.453-1.858-.57.5m5.333-1.386c-.258.258-.469 1.242-.469 2.186 0 1.461 1.041 1.712 7 1.687 6.554-.028 7-.171 7-2.248 0-2.072-.434-2.215-6.531-2.156-3.592.034-6.742.273-7 .531m14.601 1.886c.063 2.437.168 2.522.93.75 1.174-2.731 1.174-3.5 0-3.5-.55 0-.968 1.238-.93 2.75m-122.517-.835a1.116 1.116 0 0 0 .362 1.532c.521.322 1.21.159 1.532-.362a1.116 1.116 0 0 0-.362-1.532 1.116 1.116 0 0 0-1.532.362m13.03-.049c-.431.697-.513 1.537-.183 1.867.895.895 1.871-.421 1.387-1.871-.338-1.016-.574-1.016-1.204.004M95 221.5c0 .825.45 1.5 1 1.5s1-.675 1-1.5-.45-1.5-1-1.5-1 .675-1 1.5m5.469-.45c-.95 1.538.351 2.53 1.635 1.246.718-.718.735-1.277.052-1.699-.56-.346-1.319-.142-1.687.453m28.531.391c0 .857.45 1.559 1 1.559s1-.423 1-.941-.45-1.219-1-1.559c-.55-.34-1 .084-1 .941m8.583-.575c-.431.697-.513 1.537-.183 1.867.895.895 1.871-.421 1.387-1.871-.338-1.016-.574-1.016-1.204.004m19 0c-.431.697-.513 1.537-.183 1.867.895.895 1.871-.421 1.387-1.871-.338-1.016-.574-1.016-1.204.004M167 221.5c0 .825.45 1.5 1 1.5s1-.675 1-1.5-.45-1.5-1-1.5-1 .675-1 1.5m7.553-.585a1.116 1.116 0 0 0 .362 1.532c.521.322 1.21.159 1.532-.362a1.116 1.116 0 0 0-.362-1.532 1.116 1.116 0 0 0-1.532.362m11.03-.049c-.431.697-.513 1.537-.183 1.867.895.895 1.871-.421 1.387-1.871-.338-1.016-.574-1.016-1.204.004m8.97.049a1.116 1.116 0 0 0 .362 1.532c.521.322 1.21.159 1.532-.362a1.116 1.116 0 0 0-.362-1.532 1.116 1.116 0 0 0-1.532.362M189 222c0 .55.477 1 1.059 1s.781-.45.441-1-.816-1-1.059-1-.441.45-.441 1" fill="#3a80c3" fill-rule="evenodd"/><path fill-opacity=".438" d="m166.951 41.538-10.538 10.538-8.6-4.388C103.184 24.915 51 56.384 51 106.07c0 29.399 17.117 53.536 44.882 63.286 7.717 2.71 9.872 3.029 20.618 3.057 13.56.035 19.371-1.289 31.326-7.141l7.327-3.586 10.691 10.658 10.691 10.658L186.5 173l9.965-10.002-11.114-11.249-11.115-11.249 2.841-6c4.184-8.836 5.992-16.879 6.078-27.036.091-10.901-1.432-18.859-5.211-27.225l-2.829-6.261 11.668-12.102 11.668-12.102-9.976-9.347c-5.486-5.141-10.203-9.365-10.481-9.387-.278-.022-5.248 4.702-11.043 10.498M108.5 69.347c-23.904 6.188-35.973 31.086-25.705 53.029 8.394 17.938 29.482 26.639 47.646 19.659l2.94-1.13-15.69-15.714c-8.63-8.643-15.691-16.105-15.691-16.582 0-.478 7.537-8.493 16.75-17.812 15.852-16.035 16.645-17.021 14.796-18.38-4.748-3.489-17.425-5.043-25.046-3.07M147 102.5l-5.432 5.5 5.424 5.492c3.38 3.423 5.778 5.138 6.363 4.553 2.148-2.148 2.006-21.045-.158-21.045-.421 0-3.21 2.475-6.197 5.5m52 95c0 12.889.283 16.572 1.25 16.25.93-.31 1.25-4.472 1.25-16.25 0-11.778-.32-15.94-1.25-16.25-.967-.322-1.25 3.361-1.25 16.25m-145.685-7.075c-4.438 1.984-6.656 6.676-6.065 12.83.857 8.91 8.799 13.274 16.207 8.903L67 210.067v7.467c0 5.97.301 7.466 1.5 7.466 1.276 0 1.5-2.611 1.5-17.5s-.224-17.5-1.5-17.5c-.873 0-1.5.908-1.5 2.174v2.175l-2.298-2.159c-3.025-2.842-7.447-3.527-11.387-1.765m28.781-.16c-8.366 4.299-8.945 18.176-.931 22.32 3.832 1.982 8.125 1.761 11.088-.569l2.522-1.984.546 2.089c.301 1.149 1.057 1.92 1.68 1.712.745-.248 1.197-4.403 1.317-12.106.164-10.572.01-11.727-1.568-11.727-.963 0-1.75.626-1.75 1.392 0 1.1-.78.995-3.711-.5-4.327-2.206-5.911-2.314-9.193-.627m30.904-.556c-.825.304-2.287 1.238-3.25 2.076-1.576 1.373-1.75 1.36-1.75-.13 0-.91-.689-1.655-1.532-1.655-1.304 0-1.49 1.733-1.25 11.668.199 8.238.65 11.791 1.532 12.084.928.308 1.254-1.602 1.265-7.419.017-9.218 1.411-12.703 5.258-13.149 1.92-.223 2.727-.889 2.727-2.25 0-1.994-.43-2.169-3-1.225m12.321.904c-8.067 3.979-8.221 17.802-.245 21.926 3.709 1.918 9.182 1.442 11.921-1.036 1.608-1.455 1.792-1.418 2.282.457.294 1.122 1.026 2.04 1.627 2.04.731 0 1.094-3.982 1.094-12 0-10-.25-12-1.5-12-.825 0-1.5.626-1.5 1.392 0 1.1-.78.995-3.711-.5-4.471-2.279-5.834-2.317-9.968-.279m51.693.098c-4.321 2.218-5.98 5.404-5.999 11.523-.021 6.612 3.667 10.75 10.24 11.491 4.412.498 4.916.301 8.468-3.305 3.154-3.201 3.481-3.895 1.985-4.208-1.052-.22-2.63.691-3.823 2.207-2.885 3.668-8.906 3.641-11.812-.054-3.784-4.81-3.016-5.365 7.427-5.365 9.399 0 9.5-.026 9.5-2.435 0-8.549-8.418-13.738-15.986-9.854m-30.01.039c.002.412 1.952 5.7 4.334 11.75 5.706 14.493 6.43 14.473 12.226-.33 2.44-6.232 4.436-11.52 4.436-11.75 0-1.027-3.109-.291-3.507.83-.244.688-1.951 5.249-3.792 10.136l-3.348 8.887-3.802-10.137C151.268 194.048 149.2 190 148.375 190c-.756 0-1.373.338-1.371.75m-94.081 4.173c-3.312 3.312-3.815 7.451-1.46 12.005 3.055 5.908 11.083 5.566 14.374-.612C68.945 200.48 64.599 192 58.5 192c-1.6 0-3.815 1.161-5.577 2.923m29.733-1.79c-2.604 1.514-4.819 7.336-4.042 10.625C81.106 214.297 95 212.914 95 202.127c0-5.36-.744-6.943-4.072-8.664-3.319-1.717-5.722-1.813-8.272-.33m42.65 1.28c-3.809 3.277-3.996 10.159-.382 14.006 5.439 5.79 14.106 1.702 14.044-6.624-.034-4.622-1.206-6.796-4.652-8.632-3.321-1.768-5.92-1.408-9.01 1.25m51.149.042C171.971 198.938 173.032 200 182 200c6.549 0 8-.28 8-1.545 0-2.693-4.663-6.455-8-6.455-1.948 0-3.998.907-5.545 2.455" fill="#3a80c3" fill-rule="evenodd"/><path fill-opacity=".979" d="M199 197.5c0 9.667.376 15.5 1 15.5s1-5.833 1-15.5-.376-15.5-1-15.5-1 5.833-1 15.5m-148.046-4.75c-6.076 5.429-4.628 16.817 2.518 19.803 4.113 1.718 8.037 1.084 11.234-1.817l2.205-2.001.295 7.882c.172 4.613.709 7.78 1.294 7.635.604-.15 1.108-6.979 1.274-17.25.236-14.683.065-17.002-1.25-17.002-.875 0-1.524.883-1.524 2.073v2.072l-2.635-2.072c-3.879-3.051-9.56-2.764-13.411.677m27.969.173c-2.522 2.522-2.923 3.678-2.923 8.423 0 6.498 3.019 11.008 8.043 12.013 3.325.665 9.957-1.538 9.957-3.308 0-.578.45-1.051 1-1.051s1 .9 1 2 .45 2 1 2c.609 0 1-4.5 1-11.5s-.391-11.5-1-11.5c-.55 0-1 .9-1 2s-.244 2-.542 2c-.298 0-1.508-.9-2.688-2-3.428-3.193-10.181-2.743-13.847.923M106 201.5c0 7 .391 11.5 1 11.5.584 0 1-3.348 1-8.045 0-7.209.255-8.301 2.455-10.5 1.35-1.35 3.15-2.455 4-2.455.85 0 1.545-.45 1.545-1 0-1.531-3.669-1.188-5.357.5-.825.825-1.757 1.5-2.072 1.5-.314 0-.571-.675-.571-1.5s-.45-1.5-1-1.5c-.609 0-1 4.5-1 11.5m17.659-9.446c-7.117 5.598-4.278 19.553 4.363 21.451 3.029.665 9.978-1.74 9.978-3.454 0-.578.45-1.051 1-1.051s1 .9 1 2 .45 2 1 2c.609 0 1-4.5 1-11.5s-.391-11.5-1-11.5c-.55 0-1 .9-1 2s-.267 2-.592 2c-.326 0-1.737-.9-3.135-2-3.356-2.64-9.222-2.615-12.614.054m23.342-1.804c.001.137 1.934 5.2 4.296 11.25 5.229 13.398 6.81 14.169 10.256 5 1.241-3.3 3.192-8.363 4.337-11.25 1.617-4.08 1.777-5.25.718-5.25-.806 0-2.652 3.575-4.52 8.75-1.736 4.813-3.553 9.39-4.037 10.171-.977 1.577-1.889-.255-6.059-12.171-1.299-3.714-2.953-6.75-3.677-6.75-.723 0-1.314.113-1.314.25m28.855 1.266c-4.806 2.611-6.334 11.548-2.93 17.131 3.752 6.153 13.918 6.573 17.745.733 2.028-3.095.761-4.567-1.489-1.732-.925 1.165-2.726 2.653-4.003 3.308-4.198 2.153-11.065-1.67-11.147-6.206-.028-1.54 1.053-1.75 8.999-1.75 6.992 0 9.158-.329 9.592-1.459.91-2.371-1.534-8.253-4.138-9.959-2.979-1.952-9.098-1.984-12.629-.066m-123.401 2.939c-1.878 1.877-2.455 3.51-2.455 6.944 0 6.22 3.105 9.801 8.5 9.801 5.323 0 8.5-3.592 8.5-9.61 0-8.568-8.797-12.884-14.545-7.135m28.134.622c-4.44 5.276-2.621 13.67 3.418 15.776 6.099 2.126 11.493-2.354 11.493-9.545 0-3.67-.508-4.918-2.806-6.895-4.083-3.512-8.81-3.253-12.105.664m44.612-1.049c-4.314 4.018-4.092 12.687.4 15.63 7.902 5.178 16.748-3.101 12.971-12.14-2.362-5.653-9.148-7.425-13.371-3.49m50.973.286c-1.196 1.273-2.174 3.298-2.174 4.5 0 2.066.44 2.186 8 2.186 7.707 0 8-.085 8-2.326 0-5.978-9.493-8.971-13.826-4.36" fill="#3a80c3" fill-rule="evenodd"/></svg>