<?xml version="1.0" encoding="UTF-8"?> <svg xmlns="http://www.w3.org/2000/svg" width="311" height="92" viewBox="0 0 311 92"><defs><style> .cls-1 { fill: #3f88e8; } .cls-1, .cls-2 { fill-rule: evenodd; } .cls-2 { fill: #fff; } </style></defs><path class="cls-1" d="M154.439,90.386c0-.276,0-0.56-0.009-0.836a1.681,1.681,0,0,0-.008-0.2c-0.008-.276-0.017-0.552-0.025-0.819a0.358,0.358,0,0,1-.008-0.092c-0.017-.251-0.033-0.5-0.05-0.752,0-.067-0.008-0.125-0.008-0.184-0.025-.276-0.05-0.543-0.074-0.81-0.009-.05-0.009-0.092-0.017-0.142-0.025-.242-0.049-0.476-0.083-0.71a1.073,1.073,0,0,0-.016-0.167c-0.033-.267-0.074-0.535-0.108-0.8-0.008-.05-0.016-0.108-0.024-0.159-0.042-.234-0.075-0.476-0.116-0.71-0.008-.042-0.016-0.084-0.025-0.125-0.05-.267-0.1-0.526-0.148-0.785a1.123,1.123,0,0,1-.034-0.184c-0.058-.242-0.107-0.485-0.165-0.727,0-.025-0.008-0.05-0.008-0.075-0.066-.259-0.124-0.518-0.19-0.777-0.017-.058-0.033-0.117-0.05-0.175-0.066-.259-0.132-0.518-0.207-0.777V80.358q-0.111-.376-0.223-0.752c-0.016-.058-0.041-0.125-0.058-0.184-0.074-.251-0.157-0.5-0.239-0.752a0.839,0.839,0,0,1-.033-0.092c-0.075-.226-0.157-0.451-0.232-0.668-0.025-.059-0.041-0.117-0.066-0.176q-0.124-.363-0.273-0.727c-0.016-.042-0.033-0.084-0.049-0.134-0.083-.209-0.174-0.426-0.257-0.635a1.043,1.043,0,0,1-.057-0.142c-0.108-.242-0.207-0.476-0.315-0.71a1.092,1.092,0,0,0-.066-0.15c-0.1-.217-0.19-0.426-0.289-0.635-0.017-.033-0.033-0.075-0.049-0.109-0.116-.234-0.232-0.468-0.348-0.694a0.973,0.973,0,0,0-.082-0.159c-0.108-.217-0.224-0.443-0.339-0.66-0.009-.017-0.017-0.033-0.025-0.05-0.124-.226-0.248-0.451-0.38-0.677a1,1,0,0,0-.091-0.159q-0.186-.338-0.4-0.677l-0.008-.025c-0.133-.217-0.265-0.434-0.405-0.652-0.025-.042-0.058-0.092-0.091-0.142l-0.422-.652-0.049-.075c-0.133-.2-0.273-0.393-0.414-0.593-0.025-.042-0.058-0.084-0.082-0.125-0.149-.209-0.306-0.418-0.455-0.627l-0.074-.1c-0.141-.192-0.29-0.384-0.43-0.568a0.915,0.915,0,0,0-.075-0.092c-0.157-.209-0.322-0.418-0.487-0.618a0.917,0.917,0,0,1-.083-0.1c-0.165-.192-0.322-0.393-0.488-0.585l-0.033-.034-0.529-.61a0.411,0.411,0,0,1-.082-0.092q-0.546-.6-1.116-1.178l-0.075-.075c-0.388-.393-0.785-0.777-1.19-1.145l-0.058-.05c-0.413-.384-0.843-0.76-1.281-1.12l-0.008-.017a36.413,36.413,0,0,0-3.786-2.766l1.1-1.913a15.139,15.139,0,0,0,2.017-7.487,15.335,15.335,0,0,0-7.406-12.993,14.614,14.614,0,0,0-7.431-2H110.7a14.632,14.632,0,0,0-7.431,2,14.821,14.821,0,0,0-5.39,5.523,14.927,14.927,0,0,0,0,14.957l1.1,1.913a36.855,36.855,0,0,0-7.307,55.893l-0.033-.05a35.931,35.931,0,0,0,53.158.041l-0.008.009c0.066-.067.132-0.142,0.2-0.218a0.777,0.777,0,0,0,.075-0.083c0.173-.184.339-0.384,0.512-0.577,0.025-.033.058-0.066,0.083-0.1,0.165-.192.331-0.384,0.488-0.576l0.1-.126c0.149-.184.289-0.367,0.438-0.551,0.041-.05.074-0.1,0.116-0.151,0.132-.175.272-0.351,0.405-0.535,0.041-.05.082-0.108,0.124-0.167,0.124-.175.256-0.351,0.38-0.526,0.041-.058.082-0.125,0.124-0.184,0.124-.175.248-0.351,0.364-0.535H148.2c-10.886,4.605-28.5,2.215-37.213-1.754a23.924,23.924,0,0,1-11.019-3.351c-2.215-.894-4.091-1.7-2.7-8.189s4.117-11.314,8.828-16.637,7.878-11.64,10.209-12.927,13.638-1.07,16.325-.535,2.2,5.239,2.166,7.729-1.464,2.574-1.464,2.574a2.306,2.306,0,0,1-1.3,2.858c-1.116.3-4.935-1.42-4.935-1.42a7.378,7.378,0,0,1-6.935-2.933s-2.562,2.574-4.331,10.47c0,0,.446,6.217-2.149,11.122,0,0,9.348-10.077,21.821-2.214a14.543,14.543,0,0,1,18.731-1.379,1.184,1.184,0,0,1,.016-0.167l0.009-.109c0.024-.267.049-0.543,0.074-0.819a0.391,0.391,0,0,1,.008-0.092c0.017-.284.033-0.568,0.05-0.844a0.241,0.241,0,0,1,.008-0.075c0.008-.292.025-0.585,0.033-0.877v-0.05C154.439,91.012,154.439,90.7,154.439,90.386ZM126.632,54.772a36.031,36.031,0,0,0-16.813,0l-0.19-.326-1.653-2.891a3.245,3.245,0,0,1-.463-1.579,3.308,3.308,0,0,1,.455-1.6,2.923,2.923,0,0,1,2.728-1.563h15.06a2.923,2.923,0,0,1,2.728,1.563,2.995,2.995,0,0,1-.008,3.184Zm-16.821,0-0.008.008-0.182-.326c-1.579-2.774-.909-1.613.008-0.008Zm16.838,0.008-0.008-.008C127.913,52.558,128.161,52.115,126.649,54.781Z" transform="translate(-82 -35)"></path><path id="ProFit28" class="cls-2" d="M200.74,62.675q0-8.616-9.386-8.617H181.281q-9.387,0-9.386,8.617v37.774q0,8.616,9.386,8.617h10.073q9.384,0,9.386-8.617V80.17H186.446v7.05h4.306V99.4a2.544,2.544,0,0,1-.517,1.871,2.824,2.824,0,0,1-1.894.479h-4.047a2.82,2.82,0,0,1-1.894-.479,2.544,2.544,0,0,1-.517-1.871V63.72a2.548,2.548,0,0,1,.517-1.871,2.825,2.825,0,0,1,1.894-.479h4.047a2.828,2.828,0,0,1,1.894.479,2.548,2.548,0,0,1,.517,1.871v7.224h9.988V62.675Zm8.867,46.3h9.9V54.059h-9.9v54.92Zm28.412-38.47,7.233,26.546h8.008l7.232-26.633v38.558h8.7V54.059H258.34L249.213,86.7l-9.127-32.639H229.237v54.92h8.782V70.509Zm49.25,0L294.5,97.055h8.008l7.232-26.633v38.558h8.7V54.059H307.589L298.462,86.7l-9.127-32.639H278.487v54.92h8.782V70.509ZM337.724,84.7H351.07V76.949H337.724V61.718h15.843V54.059H327.736v54.92h26.519v-7.66H337.724V84.7Zm36.334,2.872,8.266,21.411H393l-9.04-21.672q6.284-1.218,6.285-8.356V62.675q0-8.616-9.385-8.617H360.884v54.92h9.9V87.568h3.272Zm3.875-25.85a2.83,2.83,0,0,1,1.894.479,2.552,2.552,0,0,1,.517,1.871V77.82a2.548,2.548,0,0,1-.517,1.871,2.822,2.822,0,0,1-1.894.479h-7.147V61.718h7.147Z" transform="translate(-82 -35)"></path></svg>
